{
  "accessors": [
    {
      "bufferView": 0,
      "componentType": 5126,
      "count": 1626,
      "max": [
        0.8009999990463257,
        3.01200008392334,
        2.3519999980926514
      ],
      "min": [
        -0.7649999856948853,
        -2.2859997749328613,
        -0.32099997997283936
      ],
      "type": "VEC3"
    },
    {
      "bufferView": 1,
      "componentType": 5126,
      "count": 1626,
      "type": "VEC4"
    },
    {
      "bufferView": 2,
      "componentType": 5123,
      "count": 1626,
      "type": "SCALAR"
    },
    {
      "bufferView": 3,
      "componentType": 5126,
      "count": 1626,
      "max": [
        0,
        0,
        0
      ],
      "min": [
        0,
        0,
        0
      ],
      "type": "VEC3"
    },
    {
      "bufferView": 4,
      "componentType": 5126,
      "count": 1626,
      "max": [
        0.07199996709823608,
        0.021000027656555176,
        -0.018000006675720215
      ],
      "min": [
        -0.1080000102519989,
        -0.09600001573562622,
        -0.11399996280670166
      ],
      "type": "VEC3"
    },
    {
      "bufferView": 5,
      "componentType": 5126,
      "count": 1626,
      "max": [
        0.35099998116493225,
        0.08399999141693115,
        -0.023999996483325958
      ],
      "min": [
        -0.41100001335144043,
        -0.10499998927116394,
        -0.3359999656677246
      ],
      "type": "VEC3"
    },
    {
      "bufferView": 6,
      "componentType": 5126,
      "count": 1626,
      "max": [
        1.0889999866485596,
        0.11699999868869781,
        0.012000001966953278
      ],
      "min": [
        -1.1009999513626099,
        -0.12000000476837158,
        -0.6719999313354492
      ],
      "type": "VEC3"
    },
    {
      "bufferView": 7,
      "componentType": 5126,
      "count": 1626,
      "max": [
        2.174999952316284,
        0.11999999731779099,
        0.07200000435113907
      ],
      "min": [
        -2.057999849319458,
        -0.2939999997615814,
        -1.244999885559082
      ],
      "type": "VEC3"
    },
    {
      "bufferView": 8,
      "componentType": 5126,
      "count": 1626,
      "max": [
        2.6639997959136963,
        0.15900000929832458,
        0.14100000262260437
      ],
      "min": [
        -2.690999746322632,
        -0.37199997901916504,
        -2.823000192642212
      ],
      "type": "VEC3"
    },
    {
      "bufferView": 9,
      "componentType": 5126,
      "count": 1626,
      "max": [
        1.9439998865127563,
        0.18599998950958252,
        0.20399999618530273
      ],
      "min": [
        -2.25,
        -0.296999990940094,
        -4.293000221252441
      ],
      "type": "VEC3"
    },
    {
      "bufferView": 10,
      "componentType": 5126,
      "count": 1626,
      "max": [
        0.9360000491142273,
        0.19499999284744263,
        0.24900001287460327
      ],
      "min": [
        -1.190999984741211,
        -0.1979999989271164,
        -4.811999797821045
      ],
      "type": "VEC3"
    },
    {
      "bufferView": 11,
      "componentType": 5126,
      "count": 1626,
      "max": [
        0.5789999961853027,
        0.17399999499320984,
        0.27300000190734863
      ],
      "min": [
        -0.5850000381469727,
        -0.2789999842643738,
        -4.904999732971191
      ],
      "type": "VEC3"
    },
    {
      "bufferView": 12,
      "componentType": 5126,
      "count": 1626,
      "max": [
        0.972000002861023,
        0.1379999965429306,
        0.2669999897480011
      ],
      "min": [
        -0.809999942779541,
        -0.3059999942779541,
        -4.776000022888184
      ],
      "type": "VEC3"
    },
    {
      "bufferView": 13,
      "componentType": 5126,
      "count": 1626,
      "max": [
        2.000999927520752,
        0.09599998593330383,
        0.23399999737739563
      ],
      "min": [
        -1.8209999799728394,
        -0.26999998092651367,
        -4.11299991607666
      ],
      "type": "VEC3"
    },
    {
      "bufferView": 14,
      "componentType": 5126,
      "count": 1626,
      "max": [
        2.432999849319458,
        0.2670000195503235,
        0.18299999833106995
      ],
      "min": [
        -2.4779999256134033,
        -0.15599998831748962,
        -2.507999897003174
      ],
      "type": "VEC3"
    },
    {
      "bufferView": 15,
      "componentType": 5126,
      "count": 1626,
      "max": [
        1.6109999418258667,
        0.34200000762939453,
        0.12300002574920654
      ],
      "min": [
        -1.8509998321533203,
        -0.054000020027160645,
        -0.7890000343322754
      ],
      "type": "VEC3"
    },
    {
      "bufferView": 16,
      "componentType": 5126,
      "count": 1626,
      "max": [
        0.47700002789497375,
        0.17400002479553223,
        0.056999996304512024
      ],
      "min": [
        -0.6060000061988831,
        -0.015000104904174805,
        -0.07800006866455078
      ],
      "type": "VEC3"
    },
    {
      "bufferView": 17,
      "componentType": 5126,
      "count": 15,
      "max": [
        1.3999999364217122
      ],
      "min": [
        0
      ],
      "type": "SCALAR"
    },
    {
      "bufferView": 18,
      "componentType": 5126,
      "count": 630,
      "type": "SCALAR"
    }
  ],
  "animations": [
    {
      "channels": [
        {
          "sampler": 0,
          "target": {
            "node": 0,
            "path": "weights"
          }
        }
      ],
      "name": "KeyAction",
      "samplers": [
        {
          "input": 17,
          "interpolation": "CUBICSPLINE",
          "output": 18
        }
      ]
    }
  ],
  "asset": {
    "generator": "Khronos Blender glTF 2.0 I/O",
    "version": "2.0"
  },
  "bufferViews": [
    {
      "buffer": 0,
      "byteLength": 19512,
      "byteOffset": 0
    },
    {
      "buffer": 0,
      "byteLength": 26016,
      "byteOffset": 19512
    },
    {
      "buffer": 0,
      "byteLength": 3252,
      "byteOffset": 45528
    },
    {
      "buffer": 0,
      "byteLength": 19512,
      "byteOffset": 48780
    },
    {
      "buffer": 0,
      "byteLength": 19512,
      "byteOffset": 68292
    },
    {
      "buffer": 0,
      "byteLength": 19512,
      "byteOffset": 87804
    },
    {
      "buffer": 0,
      "byteLength": 19512,
      "byteOffset": 107316
    },
    {
      "buffer": 0,
      "byteLength": 19512,
      "byteOffset": 126828
    },
    {
      "buffer": 0,
      "byteLength": 19512,
      "byteOffset": 146340
    },
    {
      "buffer": 0,
      "byteLength": 19512,
      "byteOffset": 165852
    },
    {
      "buffer": 0,
      "byteLength": 19512,
      "byteOffset": 185364
    },
    {
      "buffer": 0,
      "byteLength": 19512,
      "byteOffset": 204876
    },
    {
      "buffer": 0,
      "byteLength": 19512,
      "byteOffset": 224388
    },
    {
      "buffer": 0,
      "byteLength": 19512,
      "byteOffset": 243900
    },
    {
      "buffer": 0,
      "byteLength": 19512,
      "byteOffset": 263412
    },
    {
      "buffer": 0,
      "byteLength": 19512,
      "byteOffset": 282924
    },
    {
      "buffer": 0,
      "byteLength": 19512,
      "byteOffset": 302436
    },
    {
      "buffer": 0,
      "byteLength": 60,
      "byteOffset": 321948
    },
    {
      "buffer": 0,
      "byteLength": 2520,
      "byteOffset": 322008
    }
  ],
  "buffers": [
    {
      "uri": "Flamingo_data.bin",
      "byteLength": 324528
    }
  ],
  "extensions": {},
  "materials": [
    {
      "name": "Material_0_COLOR_0",
      "pbrMetallicRoughness": {
        "metallicFactor": 0,
        "roughnessFactor": 1
      }
    }
  ],
  "meshes": [
    {
      "name": "Mesh_0",
      "primitives": [
        {
          "attributes": {
            "COLOR_0": 1,
            "POSITION": 0
          },
          "indices": 2,
          "material": 0,
          "targets": [
            {
              "POSITION": 3
            },
            {
              "POSITION": 4
            },
            {
              "POSITION": 5
            },
            {
              "POSITION": 6
            },
            {
              "POSITION": 7
            },
            {
              "POSITION": 8
            },
            {
              "POSITION": 9
            },
            {
              "POSITION": 10
            },
            {
              "POSITION": 11
            },
            {
              "POSITION": 12
            },
            {
              "POSITION": 13
            },
            {
              "POSITION": 14
            },
            {
              "POSITION": 15
            },
            {
              "POSITION": 16
            }
          ]
        }
      ]
    }
  ],
  "nodes": [
    {
      "mesh": 0,
      "name": "Object_0",
      "rotation": [
        0.7071068286895752,
        0,
        0,
        0.7071067094802856
      ]
    }
  ],
  "scene": 0,
  "scenes": [
    {
      "name": "Scene",
      "nodes": [
        0
      ]
    }
  ]
}