{
  "accessors": [
    {
      "bufferView": 0,
      "componentType": 5126,
      "count": 1878,
      "max": [
        1.2149999141693115,
        0.7319999933242798,
        0.4169999659061432
      ],
      "min": [
        -1.1699999570846558,
        -2.2829999923706055,
        -0.593999981880188
      ],
      "type": "VEC3"
    },
    {
      "bufferView": 1,
      "componentType": 5126,
      "count": 1878,
      "type": "VEC4"
    },
    {
      "bufferView": 2,
      "componentType": 5123,
      "count": 1878,
      "type": "SCALAR"
    },
    {
      "bufferView": 3,
      "componentType": 5126,
      "count": 1878,
      "max": [
        0,
        0,
        0
      ],
      "min": [
        0,
        0,
        0
      ],
      "type": "VEC3"
    },
    {
      "bufferView": 4,
      "componentType": 5126,
      "count": 1878,
      "max": [
        0.2459999918937683,
        0.024000003933906555,
        0.021000027656555176
      ],
      "min": [
        -0.2820000648498535,
        -0.5879999399185181,
        -0.6360000371932983
      ],
      "type": "VEC3"
    },
    {
      "bufferView": 5,
      "componentType": 5126,
      "count": 1878,
      "max": [
        0.4259999394416809,
        0.11399999260902405,
        0.048000022768974304
      ],
      "min": [
        -0.4949999749660492,
        -0.8429999947547913,
        -1.6739999055862427
      ],
      "type": "VEC3"
    },
    {
      "bufferView": 6,
      "componentType": 5126,
      "count": 1878,
      "max": [
        0.6420000791549683,
        0.19499999284744263,
        0.06000000238418579
      ],
      "min": [
        -0.7289999127388,
        -0.7439999580383301,
        -1.994999885559082
      ],
      "type": "VEC3"
    },
    {
      "bufferView": 7,
      "componentType": 5126,
      "count": 1878,
      "max": [
        0.4559999704360962,
        0.20999999344348907,
        0.0390000194311142
      ],
      "min": [
        -0.434999942779541,
        -0.527999997138977,
        -1.9829998016357422
      ],
      "type": "VEC3"
    },
    {
      "bufferView": 8,
      "componentType": 5126,
      "count": 1878,
      "max": [
        0.24299997091293335,
        0.2549999952316284,
        0.11099999397993088
      ],
      "min": [
        -0.2250000238418579,
        -0.1470000147819519,
        -1.6890000104904175
      ],
      "type": "VEC3"
    },
    {
      "bufferView": 9,
      "componentType": 5126,
      "count": 1878,
      "max": [
        0.3569999933242798,
        0.3959999978542328,
        0.26099997758865356
      ],
      "min": [
        -0.38700008392333984,
        -0.01199999451637268,
        -1.09499990940094
      ],
      "type": "VEC3"
    },
    {
      "bufferView": 10,
      "componentType": 5126,
      "count": 1878,
      "max": [
        0.40199995040893555,
        0.6359999775886536,
        0.4259999692440033
      ],
      "min": [
        -0.41999995708465576,
        -0.015000015497207642,
        -0.45299994945526123
      ],
      "type": "VEC3"
    },
    {
      "bufferView": 11,
      "componentType": 5126,
      "count": 1878,
      "max": [
        0.38099992275238037,
        0.6539999842643738,
        0.5879999399185181
      ],
      "min": [
        -0.33900004625320435,
        -0.014999955892562866,
        -0.13499999046325684
      ],
      "type": "VEC3"
    },
    {
      "bufferView": 12,
      "componentType": 5126,
      "count": 1878,
      "max": [
        0.18900001049041748,
        0.5819999575614929,
        0.7529999613761902
      ],
      "min": [
        -0.19799983501434326,
        -0.021000027656555176,
        -0.09299999475479126
      ],
      "type": "VEC3"
    },
    {
      "bufferView": 13,
      "componentType": 5126,
      "count": 1878,
      "max": [
        0.3869999647140503,
        0.40199995040893555,
        0.9419999718666077
      ],
      "min": [
        -0.5099999308586121,
        -0.050999969244003296,
        -0.09299999475479126
      ],
      "type": "VEC3"
    },
    {
      "bufferView": 14,
      "componentType": 5126,
      "count": 1878,
      "max": [
        0.2999999523162842,
        0.3420000374317169,
        0.6660000085830688
      ],
      "min": [
        -0.22799986600875854,
        -0.014999985694885254,
        -0.19200000166893005
      ],
      "type": "VEC3"
    },
    {
      "bufferView": 15,
      "componentType": 5126,
      "count": 13,
      "max": [
        1.2000000476837158
      ],
      "min": [
        0
      ],
      "type": "SCALAR"
    },
    {
      "bufferView": 16,
      "componentType": 5126,
      "count": 468,
      "type": "SCALAR"
    }
  ],
  "animations": [
    {
      "channels": [
        {
          "sampler": 0,
          "target": {
            "node": 0,
            "path": "weights"
          }
        }
      ],
      "name": "KeyAction",
      "samplers": [
        {
          "input": 15,
          "interpolation": "CUBICSPLINE",
          "output": 16
        }
      ]
    }
  ],
  "asset": {
    "generator": "Khronos Blender glTF 2.0 I/O",
    "version": "2.0"
  },
  "bufferViews": [
    {
      "buffer": 0,
      "byteLength": 22536,
      "byteOffset": 0
    },
    {
      "buffer": 0,
      "byteLength": 30048,
      "byteOffset": 22536
    },
    {
      "buffer": 0,
      "byteLength": 3756,
      "byteOffset": 52584
    },
    {
      "buffer": 0,
      "byteLength": 22536,
      "byteOffset": 56340
    },
    {
      "buffer": 0,
      "byteLength": 22536,
      "byteOffset": 78876
    },
    {
      "buffer": 0,
      "byteLength": 22536,
      "byteOffset": 101412
    },
    {
      "buffer": 0,
      "byteLength": 22536,
      "byteOffset": 123948
    },
    {
      "buffer": 0,
      "byteLength": 22536,
      "byteOffset": 146484
    },
    {
      "buffer": 0,
      "byteLength": 22536,
      "byteOffset": 169020
    },
    {
      "buffer": 0,
      "byteLength": 22536,
      "byteOffset": 191556
    },
    {
      "buffer": 0,
      "byteLength": 22536,
      "byteOffset": 214092
    },
    {
      "buffer": 0,
      "byteLength": 22536,
      "byteOffset": 236628
    },
    {
      "buffer": 0,
      "byteLength": 22536,
      "byteOffset": 259164
    },
    {
      "buffer": 0,
      "byteLength": 22536,
      "byteOffset": 281700
    },
    {
      "buffer": 0,
      "byteLength": 22536,
      "byteOffset": 304236
    },
    {
      "buffer": 0,
      "byteLength": 52,
      "byteOffset": 326772
    },
    {
      "buffer": 0,
      "byteLength": 1872,
      "byteOffset": 326824
    }
  ],
  "buffers": [
    {
      "uri": "Parrot_data.bin",
      "byteLength": 328696
    }
  ],
  "extensions": {},
  "materials": [
    {
      "name": "Material_0_COLOR_0",
      "pbrMetallicRoughness": {
        "metallicFactor": 0,
        "roughnessFactor": 1
      }
    }
  ],
  "meshes": [
    {
      "name": "Mesh_0",
      "primitives": [
        {
          "attributes": {
            "COLOR_0": 1,
            "POSITION": 0
          },
          "indices": 2,
          "material": 0,
          "targets": [
            {
              "POSITION": 3
            },
            {
              "POSITION": 4
            },
            {
              "POSITION": 5
            },
            {
              "POSITION": 6
            },
            {
              "POSITION": 7
            },
            {
              "POSITION": 8
            },
            {
              "POSITION": 9
            },
            {
              "POSITION": 10
            },
            {
              "POSITION": 11
            },
            {
              "POSITION": 12
            },
            {
              "POSITION": 13
            },
            {
              "POSITION": 14
            }
          ]
        }
      ]
    }
  ],
  "nodes": [
    {
      "mesh": 0,
      "name": "Object_0",
      "rotation": [
        0.7071068286895752,
        0,
        0,
        0.7071067094802856
      ]
    }
  ],
  "scene": 0,
  "scenes": [
    {
      "name": "Scene",
      "nodes": [
        0
      ]
    }
  ]
}