<?xml version="1.0" standalone="no"?>
<!DOCTYPE svg PUBLIC "-//W3C//DTD SVG 20010904//EN"
 "http://www.w3.org/TR/2001/REC-SVG-20010904/DTD/svg10.dtd">
<svg version="1.0" xmlns="http://www.w3.org/2000/svg"
 width="750.000000pt" height="750.000000pt" viewBox="0 0 750.000000 750.000000"
 preserveAspectRatio="xMidYMid meet">
<metadata>
Created by potrace 1.14, written by Peter Selinger 2001-2017
</metadata>
<g transform="translate(0.000000,750.000000) scale(0.100000,-0.100000)"
fill="#000000" stroke="none">
<path d="M3070 6349 c-162 -23 -286 -126 -340 -283 -16 -48 -20 -84 -20 -198
l0 -138 -1062 -1 c-585 -1 -1066 -1 -1070 0 -14 1 -115 -32 -151 -51 -49 -25
-111 -81 -147 -133 -79 -115 -92 -282 -32 -407 38 -78 113 -158 182 -193 96
-49 126 -51 713 -50 301 1 550 -2 553 -6 2 -4 -4 -14 -13 -21 -29 -21 -174
-186 -245 -278 -203 -264 -398 -638 -473 -910 -3 -8 -14 -49 -26 -90 -23 -80
-67 -287 -71 -332 l-2 -28 -136 -1 c-169 -1 -182 -2 -251 -28 -106 -40 -184
-115 -236 -227 l-28 -59 -3 -695 c-2 -503 0 -710 8 -750 34 -159 183 -298 342
-318 29 -4 350 -7 713 -6 729 1 718 0 820 65 69 43 119 100 157 178 l33 66 3
712 c3 702 2 713 -18 774 -31 91 -95 175 -167 220 -18 12 -33 24 -33 27 0 4
13 23 29 42 16 19 100 127 187 240 87 113 161 207 164 210 3 3 17 21 30 40 25
35 46 62 65 84 6 6 22 27 35 46 13 19 27 37 30 40 3 3 48 59 98 125 51 66 98
127 105 135 7 8 37 48 67 88 36 48 60 71 70 68 114 -36 109 -36 792 -36 456 0
684 4 720 11 77 17 146 55 204 113 60 61 91 112 108 178 l12 49 88 -56 c48
-30 100 -65 115 -77 15 -13 42 -34 61 -48 161 -121 361 -349 481 -546 71 -118
151 -290 192 -415 34 -100 71 -239 65 -244 -2 -2 -61 -5 -133 -7 -118 -5 -136
-8 -196 -35 -113 -52 -190 -136 -228 -251 -20 -60 -21 -80 -21 -754 0 -752 -1
-739 56 -836 60 -102 187 -187 296 -200 62 -6 1363 -6 1393 0 126 29 240 119
297 235 l33 68 3 709 c2 628 1 715 -13 764 -31 104 -113 205 -207 253 -75 38
-135 49 -286 49 -105 0 -144 3 -146 13 -3 10 -32 166 -43 232 -8 45 -76 266
-110 355 -49 129 -79 199 -134 305 -71 138 -83 160 -91 163 -5 2 -8 8 -8 14 0
15 -151 233 -226 326 -36 46 -102 121 -145 166 -44 46 -79 85 -79 88 0 2 248
4 552 3 379 0 569 4 608 12 200 40 340 221 327 421 -5 91 -8 104 -38 166 -30
65 -106 146 -169 180 -106 58 -64 56 -1222 56 l-1067 0 -4 148 c-4 167 -8 188
-45 255 -51 94 -149 173 -257 208 -31 9 -195 13 -705 13 -366 1 -685 -2 -710
-5z"/>
</g>
</svg>
